<?xml version="1.0" standalone="no"?><!DOCTYPE svg PUBLIC "-//W3C//DTD SVG 1.1//EN" "http://www.w3.org/Graphics/SVG/1.1/DTD/svg11.dtd"><svg t="1631988892489" class="icon" viewBox="0 0 1024 1024" version="1.1" xmlns="http://www.w3.org/2000/svg" p-id="3278" xmlns:xlink="http://www.w3.org/1999/xlink" width="200" height="200"><defs><style type="text/css"></style></defs><path d="M915.9 510.5c8.4-19 13.1-39.8 13.1-61.7 0-90-78.9-162.9-176.2-162.9-3.2 0-6.3 0.1-9.5 0.2v-0.2c0-94.8-116.2-171.6-259.6-171.6S224 191.2 224 286v2c-96.2 0-174.1 72-174.1 160.9 0 38 14.3 73 38.2 100.5-41.8 29.4-68.8 75.9-68.8 128.2 0 88.9 78 160.9 174.1 160.9 17.1 0 33.6-2.3 49.3-6.5 28.9 46.1 88.7 77.7 157.6 77.7 49.4 0 94-16.2 126-42.3 32 26.1 76.6 42.3 126 42.3 77.3 0 143-39.7 166.7-95 3.1 0.2 6.3 0.2 9.5 0.2 97.3 0 176.2-72.9 176.2-162.9 0-60.6-35.7-113.4-88.8-141.5z" fill="#5A74B8" p-id="3279"></path><path d="M357.6 449.5a46.6 73.2 0 1 0 93.2 0 46.6 73.2 0 1 0-93.2 0Z" fill="#FEFEFD" p-id="3280"></path><path d="M357.5 449.5a25.1 39.4 0 1 0 50.2 0 25.1 39.4 0 1 0-50.2 0Z" fill="#040000" p-id="3281"></path><path d="M531.3 449.5a46.6 73.2 0 1 0 93.2 0 46.6 73.2 0 1 0-93.2 0Z" fill="#FEFEFD" p-id="3282"></path><path d="M531.2 449.5a25.1 39.4 0 1 0 50.2 0 25.1 39.4 0 1 0-50.2 0Z" fill="#040000" p-id="3283"></path><path d="M426.7 574.6c20.9 29.9 59.7 52.2 96.2 38.6 19.2-7.2 34.7-21.2 47.6-36.9 2.8-3.5 3.4-8.3 0-11.7-2.9-2.9-8.9-3.5-11.7 0-16.5 20.2-40.9 40.9-68.1 35.5-17.3-3.4-31-13.2-42.9-25.9-2-2.2-3.9-4.4-5.8-6.7-1.6-1.9 1.1 1.5-0.4-0.6-0.2-0.2-0.3-0.5-0.5-0.7-6.2-8.7-20.6-0.4-14.4 8.4z" fill="#040000" p-id="3284"></path></svg>